<svg version="1.1" viewBox="0.0 0.0 1023.6561679790026 199.0" fill="none" stroke="none" stroke-linecap="square" stroke-miterlimit="10" xmlns:xlink="http://www.w3.org/1999/xlink" xmlns="http://www.w3.org/2000/svg"><clipPath id="p.0"><path d="m0 0l1023.6562 0l0 199.0l-1023.6562 0l0 -199.0z" clip-rule="nonzero"/></clipPath><g clip-path="url(#p.0)"><path fill="#000000" fill-opacity="0.0" d="m0 0l1023.6562 0l0 199.0l-1023.6562 0z" fill-rule="evenodd"/><path fill="#000000" fill-opacity="0.0" d="m13.434383 98.67716l0 0c0 -47.60955 42.71979 -86.20472 95.41733 -86.20472l0 0c52.697533 0 95.41732 38.59517 95.41732 86.20472l0 0c0 47.60955 -42.719788 86.204735 -95.41732 86.204735l0 0c-52.697533 0 -95.41733 -38.595184 -95.41733 -86.204735z" fill-rule="evenodd"/><path stroke="#969696" stroke-width="3.0" stroke-linejoin="round" stroke-linecap="butt" d="m13.434383 98.67716l0 0c0 -47.60955 42.71979 -86.20472 95.41733 -86.20472l0 0c52.697533 0 95.41732 38.59517 95.41732 86.20472l0 0c0 47.60955 -42.719788 86.204735 -95.41732 86.204735l0 0c-52.697533 0 -95.41733 -38.595184 -95.41733 -86.204735z" fill-rule="evenodd"/><path fill="#969696" d="m58.93914 90.28591l2.4375 -0.234375q0.21875 1.21875 0.890625 1.796875q0.671875 0.578125 1.8125 0.578125q1.21875 0 1.828125 -0.515625q0.609375 -0.515625 0.609375 -1.203125q0 -0.4375 -0.265625 -0.734375q-0.25 -0.3125 -0.890625 -0.546875q-0.4375 -0.15625 -2.0 -0.546875q-2.015625 -0.5 -2.828125 -1.21875q-1.140625 -1.03125 -1.140625 -2.5q0 -0.953125 0.53125 -1.765625q0.546875 -0.828125 1.546875 -1.25q1.015625 -0.4375 2.4375 -0.4375q2.34375 0 3.515625 1.03125q1.1875 1.015625 1.25 2.71875l-2.5 0.109375q-0.171875 -0.953125 -0.703125 -1.375q-0.515625 -0.421875 -1.578125 -0.421875q-1.09375 0 -1.71875 0.453125q-0.390625 0.28125 -0.390625 0.765625q0 0.4375 0.375 0.75q0.46875 0.40625 2.296875 0.84375q1.828125 0.421875 2.703125 0.890625q0.875 0.453125 1.375 1.265625q0.5 0.796875 0.5 1.96875q0 1.0625 -0.59375 2.0q-0.59375 0.921875 -1.6875 1.375q-1.078125 0.453125 -2.6875 0.453125q-2.359375 0 -3.625 -1.078125q-1.25 -1.09375 -1.5 -3.171875zm12.182724 -8.375l2.5 0l0 6.71875q0 1.59375 0.09375 2.078125q0.15625 0.765625 0.765625 1.234375q0.609375 0.453125 1.65625 0.453125q1.0625 0 1.59375 -0.4375q0.546875 -0.4375 0.65625 -1.0625q0.109375 -0.640625 0.109375 -2.125l0 -6.859375l2.515625 0l0 6.515625q0 2.234375 -0.203125 3.15625q-0.203125 0.921875 -0.75 1.5625q-0.546875 0.625 -1.46875 1.015625q-0.90625 0.375 -2.375 0.375q-1.78125 0 -2.703125 -0.40625q-0.921875 -0.421875 -1.453125 -1.078125q-0.53125 -0.65625 -0.703125 -1.375q-0.234375 -1.0625 -0.234375 -3.140625l0 -6.625zm12.529449 0l4.96875 0q1.46875 0 2.1875 0.125q0.71875 0.125 1.28125 0.515625q0.578125 0.390625 0.953125 1.046875q0.390625 0.640625 0.390625 1.4375q0 0.875 -0.46875 1.609375q-0.46875 0.71875 -1.265625 1.078125q1.125 0.328125 1.734375 1.125q0.609375 0.796875 0.609375 1.875q0 0.84375 -0.390625 1.640625q-0.390625 0.796875 -1.078125 1.28125q-0.671875 0.484375 -1.671875 0.59375q-0.625 0.0625 -3.03125 0.078125l-4.21875 0l0 -12.40625zm2.515625 2.0625l0 2.875l1.640625 0q1.453125 0 1.8125 -0.046875q0.640625 -0.078125 1.0 -0.4375q0.375 -0.375 0.375 -0.96875q0 -0.578125 -0.3125 -0.9375q-0.3125 -0.359375 -0.9375 -0.4375q-0.375 -0.046875 -2.140625 -0.046875l-1.4375 0zm0 4.9375l0 3.3125l2.3125 0q1.359375 0 1.71875 -0.078125q0.5625 -0.09375 0.90625 -0.484375q0.34375 -0.390625 0.34375 -1.0625q0 -0.546875 -0.265625 -0.9375q-0.265625 -0.390625 -0.78125 -0.5625q-0.515625 -0.1875 -2.21875 -0.1875l-2.015625 0zm9.966949 5.40625l0 -12.40625l3.734375 0l2.25 8.46875l2.234375 -8.46875l3.75 0l0 12.40625l-2.328125 0l0 -9.765625l-2.453125 9.765625l-2.421875 0l-2.453125 -9.765625l0 9.765625l-2.3125 0zm14.3875885 0l0 -12.40625l2.5 0l0 12.40625l-2.5 0zm7.673691 0l0 -10.3125l-3.671875 0l0 -2.09375l9.859375 0l0 2.09375l-3.671875 0l0 10.3125l-2.515625 0zm10.584724 0l0 -10.3125l-3.6718826 0l0 -2.09375l9.859383 0l0 2.09375l-3.671875 0l0 10.3125l-2.515625 0zm7.803467 0l0 -12.40625l9.1875 0l0 2.09375l-6.6875 0l0 2.75l6.234375 0l0 2.09375l-6.234375 0l0 3.375l6.921875 0l0 2.09375l-9.421875 0zm11.542099 -12.40625l4.578125 0q1.546875 0 2.359375 0.234375q1.09375 0.328125 1.875 1.15625q0.78125 0.8125 1.1875 2.0q0.40625 1.1875 0.40625 2.9375q0 1.53125 -0.390625 2.640625q-0.453125 1.34375 -1.328125 2.1875q-0.640625 0.625 -1.75 0.984375q-0.828125 0.265625 -2.21875 0.265625l-4.71875 0l0 -12.40625zm2.5 2.09375l0 8.21875l1.875 0q1.046875 0 1.515625 -0.109375q0.609375 -0.15625 1.0 -0.515625q0.40625 -0.375 0.65625 -1.203125q0.265625 -0.828125 0.265625 -2.265625q0 -1.4375 -0.265625 -2.203125q-0.25 -0.78125 -0.703125 -1.203125q-0.453125 -0.4375 -1.15625 -0.59375q-0.53125 -0.125 -2.0625 -0.125l-1.125 0z" fill-rule="nonzero"/><path fill="#969696" d="m84.68376 118.957794l-1.640625 0q-1.28125 -1.953125 -1.96875 -4.046875q-0.671875 -2.109375 -0.671875 -4.09375q0 -2.4375 0.84375 -4.625q0.71875 -1.890625 1.84375 -3.484375l1.625 0q-1.171875 2.5625 -1.609375 4.359375q-0.421875 1.796875 -0.421875 3.8125q0 1.390625 0.25 2.84375q0.265625 1.453125 0.703125 2.765625q0.296875 0.859375 1.046875 2.46875zm1.848526 -3.640625l0 -12.40625l2.515625 0l0 4.890625l4.90625 0l0 -4.890625l2.5 0l0 12.40625l-2.5 0l0 -5.421875l-4.90625 0l0 5.421875l-2.515625 0zm12.513824 0l0 -12.40625l9.1875 0l0 2.09375l-6.6875 0l0 2.75l6.234375 0l0 2.09375l-6.234375 0l0 3.375l6.921875 0l0 2.09375l-9.421875 0zm11.620224 0l0 -12.296875l2.5 0l0 10.203125l6.234375 0l0 2.09375l-8.734375 0zm10.506592 -12.40625l4.578125 0q1.546875 0 2.359375 0.234375q1.09375 0.328125 1.875 1.15625q0.78125 0.8125 1.1875 2.0q0.40625 1.1875 0.40625 2.9375q0 1.53125 -0.390625 2.640625q-0.453125 1.34375 -1.328125 2.1875q-0.640625 0.625 -1.75 0.984375q-0.828125 0.265625 -2.21875 0.265625l-4.71875 0l0 -12.40625zm2.5 2.09375l0 8.21875l1.875 0q1.046875 0 1.515625 -0.109375q0.609375 -0.15625 1.0 -0.515625q0.40625 -0.375 0.65625 -1.203125q0.265625 -0.828125 0.265625 -2.265625q0 -1.4375 -0.265625 -2.203125q-0.25 -0.78125 -0.703125 -1.203125q-0.453125 -0.4375 -1.15625 -0.59375q-0.53125 -0.125 -2.0625 -0.125l-1.125 0zm9.341949 13.953125q0.703125 -1.5 0.984375 -2.3125q0.296875 -0.796875 0.546875 -1.84375q0.25 -1.046875 0.359375 -1.984375q0.125 -0.953125 0.125 -1.9375q0 -2.015625 -0.4375 -3.8125q-0.4375 -1.796875 -1.59375 -4.359375l1.625 0q1.265625 1.8125 1.96875 3.859375q0.71875 2.03125 0.71875 4.125q0 1.78125 -0.5625 3.796875q-0.625 2.265625 -2.09375 4.46875l-1.640625 0z" fill-rule="nonzero"/><path fill="#000000" fill-opacity="0.0" d="m282.0853 98.67716l0 0c0 -47.60955 42.719788 -86.20472 95.41733 -86.20472l0 0c52.69754 0 95.41733 38.59517 95.41733 86.20472l0 0c0 47.60955 -42.719788 86.204735 -95.41733 86.204735l0 0c-52.69754 0 -95.41733 -38.595184 -95.41733 -86.204735z" fill-rule="evenodd"/><path stroke="#969696" stroke-width="3.0" stroke-linejoin="round" stroke-linecap="butt" d="m282.0853 98.67716l0 0c0 -47.60955 42.719788 -86.20472 95.41733 -86.20472l0 0c52.69754 0 95.41733 38.59517 95.41733 86.20472l0 0c0 47.60955 -42.719788 86.204735 -95.41733 86.204735l0 0c-52.69754 0 -95.41733 -38.595184 -95.41733 -86.204735z" fill-rule="evenodd"/><path fill="#969696" d="m331.58972 94.31716l0 -12.40625l5.28125 0q1.984375 0 2.875 0.34375q0.90625 0.328125 1.4375 1.1875q0.546875 0.84375 0.546875 1.953125q0 1.390625 -0.828125 2.296875q-0.8125 0.90625 -2.4375 1.15625q0.8125 0.46875 1.34375 1.046875q0.53125 0.5625 1.421875 2.0l1.515625 2.421875l-3.0 0l-1.8125 -2.703125q-0.953125 -1.4375 -1.3125 -1.8125q-0.359375 -0.390625 -0.765625 -0.515625q-0.390625 -0.140625 -1.25 -0.140625l-0.5 0l0 5.171875l-2.515625 0zm2.515625 -7.15625l1.84375 0q1.796875 0 2.25 -0.15625q0.453125 -0.15625 0.703125 -0.515625q0.25 -0.375 0.25 -0.9375q0 -0.625 -0.328125 -1.0q-0.328125 -0.390625 -0.9375 -0.5q-0.3125 -0.046875 -1.828125 -0.046875l-1.953125 0l0 3.15625zm9.998199 7.15625l0 -12.40625l9.1875 0l0 2.09375l-6.6875 0l0 2.75l6.234375 0l0 2.09375l-6.234375 0l0 3.375l6.921875 0l0 2.09375l-9.421875 0zm11.620209 0l0 -12.296875l2.5 0l0 10.203125l6.234375 0l0 2.09375l-8.734375 0zm10.522217 0l0 -12.40625l9.1875 0l0 2.09375l-6.6875 0l0 2.75l6.234375 0l0 2.09375l-6.234375 0l0 3.375l6.921875 0l0 2.09375l-9.421875 0zm22.74524 0l-2.734375 0l-1.078125 -2.8125l-4.953125 0l-1.03125 2.8125l-2.65625 0l4.828125 -12.40625l2.65625 0l4.96875 12.40625zm-4.625 -4.90625l-1.703125 -4.609375l-1.671875 4.609375l3.375 0zm5.3106995 0.875l2.4375 -0.234375q0.21875 1.21875 0.890625 1.796875q0.671875 0.578125 1.8125 0.578125q1.21875 0 1.828125 -0.515625q0.609375 -0.515625 0.609375 -1.203125q0 -0.4375 -0.265625 -0.734375q-0.25 -0.3125 -0.890625 -0.546875q-0.4375 -0.15625 -2.0 -0.546875q-2.015625 -0.5 -2.828125 -1.21875q-1.140625 -1.03125 -1.140625 -2.5q0 -0.953125 0.53125 -1.765625q0.546875 -0.828125 1.546875 -1.25q1.015625 -0.4375 2.4375 -0.4375q2.34375 0 3.515625 1.03125q1.1875 1.015625 1.25 2.71875l-2.5 0.109375q-0.171875 -0.953125 -0.703125 -1.375q-0.515625 -0.421875 -1.578125 -0.421875q-1.09375 0 -1.71875 0.453125q-0.390625 0.28125 -0.390625 0.765625q0 0.4375 0.375 0.75q0.46875 0.40625 2.296875 0.84375q1.828125 0.421875 2.703125 0.890625q0.875 0.453125 1.375 1.265625q0.5 0.796875 0.5 1.96875q0 1.0625 -0.59375 2.0q-0.59375 0.921875 -1.6875 1.375q-1.078125 0.453125 -2.6875 0.453125q-2.359375 0 -3.625 -1.078125q-1.25 -1.09375 -1.5 -3.171875zm12.198334 4.03125l0 -12.40625l9.1875 0l0 2.09375l-6.6875 0l0 2.75l6.234375 0l0 2.09375l-6.234375 0l0 3.375l6.921875 0l0 2.09375l-9.421875 0zm11.542114 -12.40625l4.578125 0q1.546875 0 2.359375 0.234375q1.09375 0.328125 1.875 1.15625q0.78125 0.8125 1.1875 2.0q0.40625 1.1875 0.40625 2.9375q0 1.53125 -0.390625 2.640625q-0.453125 1.34375 -1.328125 2.1875q-0.640625 0.625 -1.75 0.984375q-0.828125 0.265625 -2.21875 0.265625l-4.71875 0l0 -12.40625zm2.5 2.09375l0 8.21875l1.875 0q1.046875 0 1.515625 -0.109375q0.609375 -0.15625 1.0 -0.515625q0.40625 -0.375 0.65625 -1.203125q0.265625 -0.828125 0.265625 -2.265625q0 -1.4375 -0.265625 -2.203125q-0.25 -0.78125 -0.703125 -1.203125q-0.453125 -0.4375 -1.15625 -0.59375q-0.53125 -0.125 -2.0625 -0.125l-1.125 0z" fill-rule="nonzero"/><path fill="#969696" d="m339.85208 118.957794l-1.640625 0q-1.28125 -1.953125 -1.96875 -4.046875q-0.671875 -2.109375 -0.671875 -4.09375q0 -2.4375 0.84375 -4.625q0.71875 -1.890625 1.84375 -3.484375l1.625 0q-1.171875 2.5625 -1.609375 4.359375q-0.421875 1.796875 -0.421875 3.8125q0 1.390625 0.25 2.84375q0.265625 1.453125 0.703125 2.765625q0.296875 0.859375 1.046875 2.46875zm11.832886 -5.21875q0.921875 0.671875 2.0 1.046875l-0.921875 1.78125q-0.5625 -0.171875 -1.109375 -0.46875q-0.125 -0.0625 -1.671875 -1.109375q-1.21875 0.546875 -2.6875 0.546875q-2.859375 0 -4.484375 -1.6875q-1.625 -1.6875 -1.625 -4.734375q0 -3.03125 1.625 -4.71875q1.625 -1.6875 4.40625 -1.6875q2.765625 0 4.375 1.6875q1.625 1.6875 1.625 4.71875q0 1.609375 -0.453125 2.828125q-0.34375 0.9375 -1.078125 1.796875zm-2.015625 -1.40625q0.484375 -0.5625 0.71875 -1.359375q0.25 -0.8125 0.25 -1.859375q0 -2.140625 -0.953125 -3.203125q-0.953125 -1.0625 -2.484375 -1.0625q-1.53125 0 -2.484375 1.0625q-0.953125 1.0625 -0.953125 3.203125q0 2.171875 0.953125 3.25q0.953125 1.078125 2.40625 1.078125q0.546875 0 1.03125 -0.171875q-0.765625 -0.5 -1.546875 -0.78125l0.703125 -1.421875q1.234375 0.421875 2.359375 1.265625zm5.4940186 -9.421875l2.5 0l0 6.71875q0 1.59375 0.09375 2.078125q0.15625 0.765625 0.765625 1.234375q0.609375 0.453125 1.65625 0.453125q1.0625 0 1.59375 -0.4375q0.546875 -0.4375 0.65625 -1.0625q0.109375 -0.640625 0.109375 -2.125l0 -6.859375l2.515625 0l0 6.515625q0 2.234375 -0.203125 3.15625q-0.203125 0.921875 -0.75 1.5625q-0.546875 0.625 -1.46875 1.015625q-0.90625 0.375 -2.375 0.375q-1.78125 0 -2.703125 -0.40625q-0.921875 -0.421875 -1.453125 -1.078125q-0.53125 -0.65625 -0.703125 -1.375q-0.234375 -1.0625 -0.234375 -3.140625l0 -6.625zm12.529449 12.40625l0 -12.40625l9.1875 0l0 2.09375l-6.6875 0l0 2.75l6.234375 0l0 2.09375l-6.234375 0l0 3.375l6.921875 0l0 2.09375l-9.421875 0zm11.542084 -12.40625l2.5 0l0 6.71875q0 1.59375 0.09375 2.078125q0.15625 0.765625 0.765625 1.234375q0.609375 0.453125 1.65625 0.453125q1.0625 0 1.59375 -0.4375q0.546875 -0.4375 0.65625 -1.0625q0.109375 -0.640625 0.109375 -2.125l0 -6.859375l2.515625 0l0 6.515625q0 2.234375 -0.203125 3.15625q-0.203125 0.921875 -0.75 1.5625q-0.546875 0.625 -1.46875 1.015625q-0.90625 0.375 -2.375 0.375q-1.78125 0 -2.703125 -0.40625q-0.921875 -0.421875 -1.453125 -1.078125q-0.53125 -0.65625 -0.703125 -1.375q-0.234375 -1.0625 -0.234375 -3.140625l0 -6.625zm12.529449 12.40625l0 -12.40625l9.1875 0l0 2.09375l-6.6875 0l0 2.75l6.234375 0l0 2.09375l-6.234375 0l0 3.375l6.921875 0l0 2.09375l-9.421875 0zm11.542114 -12.40625l4.578125 0q1.546875 0 2.359375 0.234375q1.09375 0.328125 1.875 1.15625q0.78125 0.8125 1.1875 2.0q0.40625 1.1875 0.40625 2.9375q0 1.53125 -0.390625 2.640625q-0.453125 1.34375 -1.328125 2.1875q-0.640625 0.625 -1.75 0.984375q-0.828125 0.265625 -2.21875 0.265625l-4.71875 0l0 -12.40625zm2.5 2.09375l0 8.21875l1.875 0q1.046875 0 1.515625 -0.109375q0.609375 -0.15625 1.0 -0.515625q0.40625 -0.375 0.65625 -1.203125q0.265625 -0.828125 0.265625 -2.265625q0 -1.4375 -0.265625 -2.203125q-0.25 -0.78125 -0.703125 -1.203125q-0.453125 -0.4375 -1.15625 -0.59375q-0.53125 -0.125 -2.0625 -0.125l-1.125 0zm9.341949 13.953125q0.703125 -1.5 0.984375 -2.3125q0.296875 -0.796875 0.546875 -1.84375q0.25 -1.046875 0.359375 -1.984375q0.125 -0.953125 0.125 -1.9375q0 -2.015625 -0.4375 -3.8125q-0.4375 -1.796875 -1.59375 -4.359375l1.625 0q1.265625 1.8125 1.96875 3.859375q0.71875 2.03125 0.71875 4.125q0 1.78125 -0.5625 3.796875q-0.625 2.265625 -2.09375 4.46875l-1.640625 0z" fill-rule="nonzero"/><path fill="#000000" fill-opacity="0.0" d="m550.7362 98.67716l0 0c0 -47.60955 42.719788 -86.20472 95.41736 -86.20472l0 0c52.69751 0 95.4173 38.59517 95.4173 86.20472l0 0c0 47.60955 -42.719788 86.204735 -95.4173 86.204735l0 0c-52.69757 0 -95.41736 -38.595184 -95.41736 -86.204735z" fill-rule="evenodd"/><path stroke="#969696" stroke-width="3.0" stroke-linejoin="round" stroke-linecap="butt" d="m550.7362 98.67716l0 0c0 -47.60955 42.719788 -86.20472 95.41736 -86.20472l0 0c52.69751 0 95.4173 38.59517 95.4173 86.20472l0 0c0 47.60955 -42.719788 86.204735 -95.4173 86.204735l0 0c-52.69757 0 -95.41736 -38.595184 -95.41736 -86.204735z" fill-rule="evenodd"/><path fill="#969696" d="m589.64746 104.81717l0 -12.40625l4.015625 0q2.28125 0 2.984375 0.1875q1.0625 0.28125 1.78125 1.21875q0.71875 0.9375 0.71875 2.40625q0 1.140625 -0.421875 1.921875q-0.40625 0.78125 -1.046875 1.234375q-0.640625 0.4375 -1.296875 0.578125q-0.90625 0.1875 -2.609375 0.1875l-1.625 0l0 4.671875l-2.5 0zm2.5 -10.3125l0 3.53125l1.375 0q1.46875 0 1.96875 -0.1875q0.5 -0.203125 0.78125 -0.609375q0.296875 -0.421875 0.296875 -0.96875q0 -0.6875 -0.40625 -1.125q-0.390625 -0.4375 -1.0 -0.546875q-0.453125 -0.09375 -1.8125 -0.09375l-1.203125 0zm9.057739 10.3125l0 -12.40625l5.28125 0q1.984375 0 2.875 0.34375q0.90625 0.328125 1.4375 1.1875q0.546875 0.84375 0.546875 1.953125q0 1.390625 -0.828125 2.296875q-0.8125 0.90625 -2.4375 1.15625q0.8125 0.46875 1.34375 1.046875q0.53125 0.5625 1.421875 2.0l1.515625 2.421875l-3.0 0l-1.8125 -2.703125q-0.953125 -1.4375 -1.3125 -1.8125q-0.359375 -0.390625 -0.765625 -0.515625q-0.390625 -0.140625 -1.25 -0.140625l-0.5 0l0 5.171875l-2.515625 0zm2.515625 -7.15625l1.84375 0q1.796875 0 2.25 -0.15625q0.453125 -0.15625 0.703125 -0.515625q0.25 -0.375 0.25 -0.9375q0 -0.625 -0.328125 -1.0q-0.328125 -0.390625 -0.9375 -0.5q-0.3125 -0.046875 -1.828125 -0.046875l-1.953125 0l0 3.15625zm9.482544 1.03125q0 -1.890625 0.5625 -3.1875q0.4375 -0.9375 1.15625 -1.6875q0.734375 -0.765625 1.609375 -1.125q1.15625 -0.484375 2.671875 -0.484375q2.75 0 4.390625 1.703125q1.640625 1.6875 1.640625 4.71875q0 3.0 -1.640625 4.703125q-1.625 1.703125 -4.359375 1.703125q-2.765625 0 -4.40625 -1.6875q-1.625 -1.703125 -1.625 -4.65625zm2.578125 -0.078125q0 2.09375 0.96875 3.1875q0.984375 1.09375 2.484375 1.09375q1.5 0 2.453125 -1.078125q0.96875 -1.09375 0.96875 -3.25q0 -2.125 -0.9375 -3.171875q-0.9375 -1.046875 -2.484375 -1.046875q-1.546875 0 -2.5 1.0625q-0.953125 1.0625 -0.953125 3.203125zm19.353394 1.640625l2.421875 0.765625q-0.5625 2.03125 -1.859375 3.03125q-1.296875 0.984375 -3.296875 0.984375q-2.46875 0 -4.0625 -1.6875q-1.578125 -1.703125 -1.578125 -4.625q0 -3.09375 1.59375 -4.796875q1.59375 -1.71875 4.203125 -1.71875q2.28125 0 3.703125 1.34375q0.84375 0.796875 1.265625 2.28125l-2.484375 0.59375q-0.21875 -0.96875 -0.921875 -1.515625q-0.6875 -0.5625 -1.6875 -0.5625q-1.375 0 -2.234375 0.984375q-0.859375 0.984375 -0.859375 3.203125q0 2.359375 0.84375 3.359375q0.84375 1.0 2.203125 1.0q1.0 0 1.71875 -0.640625q0.71875 -0.640625 1.03125 -2.0zm4.576294 4.5625l0 -12.40625l9.1875 0l0 2.09375l-6.6875 0l0 2.75l6.234375 0l0 2.09375l-6.234375 0l0 3.375l6.921875 0l0 2.09375l-9.421875 0zm10.917114 -4.03125l2.4375 -0.234375q0.21875 1.21875 0.890625 1.796875q0.671875 0.578125 1.8125 0.578125q1.21875 0 1.828125 -0.515625q0.609375 -0.515625 0.609375 -1.203125q0 -0.4375 -0.265625 -0.734375q-0.25 -0.3125 -0.890625 -0.546875q-0.4375 -0.15625 -2.0 -0.546875q-2.015625 -0.5 -2.828125 -1.21875q-1.140625 -1.03125 -1.140625 -2.5q0 -0.953125 0.53125 -1.765625q0.546875 -0.828125 1.546875 -1.25q1.015625 -0.4375 2.4375 -0.4375q2.34375 0 3.515625 1.03125q1.1875 1.015625 1.25 2.71875l-2.5 0.109375q-0.171875 -0.953125 -0.703125 -1.375q-0.515625 -0.421875 -1.578125 -0.421875q-1.09375 0 -1.71875 0.453125q-0.390625 0.28125 -0.390625 0.765625q0 0.4375 0.375 0.75q0.46875 0.40625 2.296875 0.84375q1.828125 0.421875 2.703125 0.890625q0.875 0.453125 1.375 1.265625q0.5 0.796875 0.5 1.96875q0 1.0625 -0.59375 2.0q-0.59375 0.921875 -1.6875 1.375q-1.078125 0.453125 -2.6875 0.453125q-2.359375 0 -3.625 -1.078125q-1.25 -1.09375 -1.5 -3.171875zm11.557739 0l2.4375 -0.234375q0.21875 1.21875 0.890625 1.796875q0.671875 0.578125 1.8125 0.578125q1.21875 0 1.828125 -0.515625q0.609375 -0.515625 0.609375 -1.203125q0 -0.4375 -0.265625 -0.734375q-0.25 -0.3125 -0.890625 -0.546875q-0.4375 -0.15625 -2.0 -0.546875q-2.015625 -0.5 -2.828125 -1.21875q-1.140625 -1.03125 -1.140625 -2.5q0 -0.953125 0.53125 -1.765625q0.546875 -0.828125 1.546875 -1.25q1.015625 -0.4375 2.4375 -0.4375q2.34375 0 3.515625 1.03125q1.1875 1.015625 1.25 2.71875l-2.5 0.109375q-0.171875 -0.953125 -0.703125 -1.375q-0.515625 -0.421875 -1.578125 -0.421875q-1.09375 0 -1.71875 0.453125q-0.390625 0.28125 -0.390625 0.765625q0 0.4375 0.375 0.75q0.46875 0.40625 2.296875 0.84375q1.828125 0.421875 2.703125 0.890625q0.875 0.453125 1.375 1.265625q0.5 0.796875 0.5 1.96875q0 1.0625 -0.59375 2.0q-0.59375 0.921875 -1.6875 1.375q-1.078125 0.453125 -2.6875 0.453125q-2.359375 0 -3.625 -1.078125q-1.25 -1.09375 -1.5 -3.171875zm12.120239 4.03125l0 -12.40625l2.5 0l0 12.40625l-2.5 0zm4.90802 0l0 -12.40625l2.4375 0l5.078125 8.28125l0 -8.28125l2.328125 0l0 12.40625l-2.515625 0l-5.0 -8.09375l0 8.09375l-2.328125 0zm18.263855 -4.5625l0 -2.09375l5.390625 0l0 4.953125q-0.78125 0.75 -2.28125 1.34375q-1.484375 0.578125 -3.015625 0.578125q-1.953125 0 -3.40625 -0.8125q-1.4375 -0.828125 -2.171875 -2.34375q-0.71875 -1.515625 -0.71875 -3.3125q0 -1.9375 0.8125 -3.4375q0.8125 -1.5 2.375 -2.3125q1.203125 -0.609375 2.96875 -0.609375q2.3125 0 3.609375 0.96875q1.296875 0.96875 1.671875 2.671875l-2.484375 0.46875q-0.265625 -0.921875 -0.984375 -1.4375q-0.71875 -0.53125 -1.8125 -0.53125q-1.640625 0 -2.609375 1.046875q-0.96875 1.03125 -0.96875 3.078125q0 2.203125 0.984375 3.3125q0.984375 1.109375 2.578125 1.109375q0.78125 0 1.5625 -0.3125q0.796875 -0.3125 1.375 -0.75l0 -1.578125l-2.875 0z" fill-rule="nonzero"/><path fill="#000000" fill-opacity="0.0" d="m819.38715 98.67716l0 0c0 -47.60955 42.719788 -86.20472 95.4173 -86.20472l0 0c52.69757 0 95.41736 38.59517 95.41736 86.20472l0 0c0 47.60955 -42.719788 86.204735 -95.41736 86.204735l0 0c-52.69751 0 -95.4173 -38.595184 -95.4173 -86.204735z" fill-rule="evenodd"/><path stroke="#969696" stroke-width="3.0" stroke-linejoin="round" stroke-linecap="butt" d="m819.38715 98.67716l0 0c0 -47.60955 42.719788 -86.20472 95.4173 -86.20472l0 0c52.69757 0 95.41736 38.59517 95.41736 86.20472l0 0c0 47.60955 -42.719788 86.204735 -95.41736 86.204735l0 0c-52.69751 0 -95.4173 -38.595184 -95.4173 -86.204735z" fill-rule="evenodd"/><path fill="#969696" d="m869.616 100.25467l2.421875 0.765625q-0.5625 2.03125 -1.859375 3.03125q-1.296875 0.984375 -3.296875 0.984375q-2.46875 0 -4.0625 -1.6875q-1.578125 -1.703125 -1.578125 -4.625q0 -3.09375 1.59375 -4.796875q1.59375 -1.71875 4.203125 -1.71875q2.28125 0 3.703125 1.34375q0.84375 0.796875 1.265625 2.28125l-2.484375 0.59375q-0.21875 -0.96875 -0.921875 -1.515625q-0.6875 -0.5625 -1.6875 -0.5625q-1.375 0 -2.234375 0.984375q-0.859375 0.984375 -0.859375 3.203125q0 2.359375 0.84375 3.359375q0.84375 1.0 2.203125 1.0q1.0 0 1.71875 -0.640625q0.71875 -0.640625 1.03125 -2.0zm4.06073 -1.5625q0 -1.890625 0.5625 -3.1875q0.4375 -0.9375 1.15625 -1.6875q0.734375 -0.765625 1.609375 -1.125q1.15625 -0.484375 2.671875 -0.484375q2.75 0 4.390625 1.703125q1.640625 1.6875 1.640625 4.71875q0 3.0 -1.640625 4.703125q-1.625 1.703125 -4.359375 1.703125q-2.765625 0 -4.40625 -1.6875q-1.625 -1.703125 -1.625 -4.65625zm2.578125 -0.078125q0 2.09375 0.96875 3.1875q0.984375 1.09375 2.484375 1.09375q1.5 0 2.453125 -1.078125q0.96875 -1.09375 0.96875 -3.25q0 -2.125 -0.9375 -3.171875q-0.9375 -1.046875 -2.484375 -1.046875q-1.546875 0 -2.5 1.0625q-0.953125 1.0625 -0.953125 3.203125zm11.3845825 6.203125l0 -12.40625l3.734375 0l2.25 8.46875l2.234375 -8.46875l3.75 0l0 12.40625l-2.328125 0l0 -9.765625l-2.453125 9.765625l-2.421875 0l-2.453125 -9.765625l0 9.765625l-2.3125 0zm14.465759 0l0 -12.40625l4.015625 0q2.28125 0 2.984375 0.1875q1.0625 0.28125 1.78125 1.21875q0.71875 0.9375 0.71875 2.40625q0 1.140625 -0.421875 1.921875q-0.40625 0.78125 -1.046875 1.234375q-0.640625 0.4375 -1.296875 0.578125q-0.90625 0.1875 -2.609375 0.1875l-1.625 0l0 4.671875l-2.5 0zm2.5 -10.3125l0 3.53125l1.375 0q1.46875 0 1.96875 -0.1875q0.5 -0.203125 0.78125 -0.609375q0.296875 -0.421875 0.296875 -0.96875q0 -0.6875 -0.40625 -1.125q-0.390625 -0.4375 -1.0 -0.546875q-0.453125 -0.09375 -1.8125 -0.09375l-1.203125 0zm9.120178 10.3125l0 -12.296875l2.5 0l0 10.203125l6.234375 0l0 2.09375l-8.734375 0zm10.522217 0l0 -12.40625l9.1875 0l0 2.09375l-6.6875 0l0 2.75l6.234375 0l0 2.09375l-6.234375 0l0 3.375l6.921875 0l0 2.09375l-9.421875 0zm14.338989 0l0 -10.3125l-3.671875 0l0 -2.09375l9.859375 0l0 2.09375l-3.671875 0l0 10.3125l-2.515625 0zm7.803467 0l0 -12.40625l9.1875 0l0 2.09375l-6.6875 0l0 2.75l6.234375 0l0 2.09375l-6.234375 0l0 3.375l6.921875 0l0 2.09375l-9.421875 0zm11.542114 -12.40625l4.578125 0q1.546875 0 2.359375 0.234375q1.09375 0.328125 1.875 1.15625q0.78125 0.8125 1.1875 2.0q0.40625 1.1875 0.40625 2.9375q0 1.53125 -0.390625 2.640625q-0.453125 1.34375 -1.328125 2.1875q-0.640625 0.625 -1.75 0.984375q-0.828125 0.265625 -2.21875 0.265625l-4.71875 0l0 -12.40625zm2.5 2.09375l0 8.21875l1.875 0q1.046875 0 1.515625 -0.109375q0.609375 -0.15625 1.0 -0.515625q0.40625 -0.375 0.65625 -1.203125q0.265625 -0.828125 0.265625 -2.265625q0 -1.4375 -0.265625 -2.203125q-0.25 -0.78125 -0.703125 -1.203125q-0.453125 -0.4375 -1.15625 -0.59375q-0.53125 -0.125 -2.0625 -0.125l-1.125 0z" fill-rule="nonzero"/><path fill="#000000" fill-opacity="0.0" d="m204.26903 98.67716l77.82677 0" fill-rule="evenodd"/><path stroke="#969696" stroke-width="3.0" stroke-linejoin="round" stroke-linecap="butt" d="m204.26903 98.67716l59.826767 0" fill-rule="evenodd"/><path fill="#969696" stroke="#969696" stroke-width="3.0" stroke-linecap="butt" d="m264.0958 103.63236l13.614288 -4.9552l-13.614288 -4.9551926z" fill-rule="evenodd"/><path fill="#000000" fill-opacity="0.0" d="m472.91995 98.67716l77.82675 0" fill-rule="evenodd"/><path stroke="#969696" stroke-width="3.0" stroke-linejoin="round" stroke-linecap="butt" d="m472.91995 98.67716l59.82675 0" fill-rule="evenodd"/><path fill="#969696" stroke="#969696" stroke-width="3.0" stroke-linecap="butt" d="m532.7467 103.63236l13.614319 -4.9552l-13.614319 -4.9551926z" fill-rule="evenodd"/><path fill="#000000" fill-opacity="0.0" d="m741.57086 98.67716l77.82678 0" fill-rule="evenodd"/><path stroke="#969696" stroke-width="3.0" stroke-linejoin="round" stroke-linecap="butt" d="m741.57086 98.67716l59.826782 0" fill-rule="evenodd"/><path fill="#969696" stroke="#969696" stroke-width="3.0" stroke-linecap="butt" d="m801.39764 103.63236l13.614258 -4.9552l-13.614258 -4.9551926z" fill-rule="evenodd"/><path fill="#000000" fill-opacity="0.0" d="m204.26903 98.67716l77.82677 0l0 58.173225l-77.82677 0z" fill-rule="evenodd"/><path fill="#969696" d="m214.08153 117.91717l0 -7.5625l1.546875 0l0 6.28125l3.828125 0l0 1.28125l-5.375 0zm6.462387 -6.28125l0 -1.34375l1.46875 0l0 1.34375l-1.46875 0zm0 6.28125l0 -5.53125l1.46875 0l0 5.53125l-1.46875 0zm2.8512726 -5.53125l1.34375 0l0 0.765625q0.71875 -0.890625 1.71875 -0.890625q0.53125 0 0.921875 0.21875q0.390625 0.21875 0.640625 0.671875q0.375 -0.453125 0.796875 -0.671875q0.421875 -0.21875 0.890625 -0.21875q0.609375 0 1.03125 0.25q0.421875 0.25 0.625 0.734375q0.15625 0.34375 0.15625 1.140625l0 3.53125l-1.453125 0l0 -3.15625q0 -0.828125 -0.15625 -1.0625q-0.203125 -0.3125 -0.625 -0.3125q-0.3125 0 -0.578125 0.1875q-0.265625 0.1875 -0.390625 0.546875q-0.125 0.359375 -0.125 1.140625l0 2.65625l-1.453125 0l0 -3.03125q0 -0.796875 -0.078125 -1.03125q-0.078125 -0.234375 -0.25 -0.34375q-0.15625 -0.125 -0.4375 -0.125q-0.34375 0 -0.609375 0.1875q-0.265625 0.171875 -0.390625 0.515625q-0.109375 0.34375 -0.109375 1.140625l0 2.6875l-1.46875 0l0 -5.53125zm9.584488 -0.75l0 -1.34375l1.46875 0l0 1.34375l-1.46875 0zm0 6.28125l0 -5.53125l1.46875 0l0 5.53125l-1.46875 0zm5.4918976 -5.53125l0 1.171875l-1.0 0l0 2.21875q0 0.6875 0.03125 0.796875q0.03125 0.109375 0.125 0.1875q0.109375 0.0625 0.25 0.0625q0.203125 0 0.59375 -0.140625l0.125 1.140625q-0.515625 0.21875 -1.15625 0.21875q-0.390625 0 -0.71875 -0.125q-0.3125 -0.140625 -0.46875 -0.34375q-0.140625 -0.21875 -0.203125 -0.578125q-0.046875 -0.25 -0.046875 -1.03125l0 -2.40625l-0.671875 0l0 -1.171875l0.671875 0l0 -1.09375l1.46875 -0.859375l0 1.953125l1.0 0zm0.5017395 3.953125l1.46875 -0.21875q0.09375 0.421875 0.375 0.640625q0.296875 0.21875 0.796875 0.21875q0.578125 0 0.859375 -0.203125q0.1875 -0.140625 0.1875 -0.390625q0 -0.171875 -0.09375 -0.28125q-0.109375 -0.09375 -0.5 -0.1875q-1.765625 -0.390625 -2.234375 -0.703125q-0.65625 -0.453125 -0.65625 -1.25q0 -0.71875 0.5625 -1.203125q0.578125 -0.5 1.765625 -0.5q1.125 0 1.671875 0.375q0.5625 0.375 0.765625 1.09375l-1.375 0.25q-0.09375 -0.3125 -0.34375 -0.484375q-0.234375 -0.171875 -0.703125 -0.171875q-0.5625 0 -0.8125 0.15625q-0.171875 0.109375 -0.171875 0.296875q0 0.15625 0.140625 0.265625q0.203125 0.140625 1.359375 0.40625q1.171875 0.265625 1.640625 0.65625q0.453125 0.390625 0.453125 1.078125q0 0.765625 -0.640625 1.3125q-0.625 0.546875 -1.875 0.546875q-1.125 0 -1.78125 -0.453125q-0.65625 -0.46875 -0.859375 -1.25z" fill-rule="nonzero"/><path fill="#969696" d="m218.84715 126.82654l-1.4375 0.265625q-0.078125 -0.4375 -0.34375 -0.65625q-0.25 -0.21875 -0.65625 -0.21875q-0.546875 0 -0.875 0.375q-0.3125 0.375 -0.3125 1.265625q0 0.984375 0.328125 1.390625q0.328125 0.40625 0.875 0.40625q0.421875 0 0.6875 -0.234375q0.265625 -0.25 0.375 -0.828125l1.4375 0.25q-0.21875 0.984375 -0.859375 1.5q-0.640625 0.5 -1.703125 0.5q-1.203125 0 -1.9375 -0.765625q-0.71875 -0.765625 -0.71875 -2.109375q0 -1.375 0.71875 -2.140625q0.734375 -0.765625 1.96875 -0.765625q1.0 0 1.59375 0.4375q0.609375 0.4375 0.859375 1.328125zm0.7702484 1.046875q0 -0.71875 0.359375 -1.40625q0.359375 -0.6875 1.015625 -1.046875q0.671875 -0.359375 1.46875 -0.359375q1.265625 0 2.0625 0.828125q0.796875 0.8125 0.796875 2.046875q0 1.25 -0.8125 2.078125q-0.796875 0.828125 -2.03125 0.828125q-0.75 0 -1.453125 -0.34375q-0.6875 -0.34375 -1.046875 -1.0q-0.359375 -0.671875 -0.359375 -1.625zm1.5 0.078125q0 0.828125 0.390625 1.265625q0.390625 0.4375 0.96875 0.4375q0.5625 0 0.953125 -0.4375q0.390625 -0.4375 0.390625 -1.265625q0 -0.8125 -0.390625 -1.25q-0.390625 -0.4375 -0.953125 -0.4375q-0.578125 0 -0.96875 0.4375q-0.390625 0.4375 -0.390625 1.25zm10.384262 2.765625l-1.46875 0l0 -2.8125q0 -0.90625 -0.09375 -1.15625q-0.09375 -0.265625 -0.3125 -0.40625q-0.203125 -0.15625 -0.5 -0.15625q-0.375 0 -0.6875 0.21875q-0.296875 0.203125 -0.40625 0.546875q-0.109375 0.34375 -0.109375 1.265625l0 2.5l-1.46875 0l0 -5.53125l1.359375 0l0 0.8125q0.71875 -0.9375 1.828125 -0.9375q0.484375 0 0.875 0.1875q0.40625 0.171875 0.609375 0.4375q0.203125 0.265625 0.28125 0.609375q0.09375 0.34375 0.09375 0.984375l0 3.4375zm4.009262 -5.53125l0 1.171875l-1.0 0l0 2.21875q0 0.6875 0.03125 0.796875q0.03125 0.109375 0.125 0.1875q0.109375 0.0625 0.25 0.0625q0.203125 0 0.59375 -0.140625l0.125 1.140625q-0.515625 0.21875 -1.15625 0.21875q-0.390625 0 -0.71875 -0.125q-0.3125 -0.140625 -0.46875 -0.34375q-0.140625 -0.21875 -0.203125 -0.578125q-0.046875 -0.25 -0.046875 -1.03125l0 -2.40625l-0.671875 0l0 -1.171875l0.671875 0l0 -1.09375l1.46875 -0.859375l0 1.953125l1.0 0zm2.4236145 5.53125l-1.46875 0l0 -5.53125l1.359375 0l0 0.796875q0.34375 -0.5625 0.625 -0.734375q0.28125 -0.1875 0.625 -0.1875q0.5 0 0.96875 0.28125l-0.453125 1.28125q-0.375 -0.25 -0.6875 -0.25q-0.3125 0 -0.53125 0.171875q-0.203125 0.171875 -0.328125 0.625q-0.109375 0.4375 -0.109375 1.84375l0 1.703125zm3.834488 -3.84375l-1.328125 -0.234375q0.21875 -0.796875 0.765625 -1.1875q0.546875 -0.390625 1.625 -0.390625q0.984375 0 1.453125 0.234375q0.484375 0.234375 0.671875 0.59375q0.203125 0.359375 0.203125 1.3125l-0.015625 1.703125q0 0.71875 0.0625 1.078125q0.078125 0.34375 0.265625 0.734375l-1.4375 0q-0.0625 -0.140625 -0.140625 -0.4375q-0.046875 -0.125 -0.0625 -0.171875q-0.375 0.375 -0.796875 0.5625q-0.421875 0.171875 -0.90625 0.171875q-0.859375 0 -1.359375 -0.453125q-0.484375 -0.46875 -0.484375 -1.1875q0 -0.46875 0.21875 -0.828125q0.234375 -0.359375 0.640625 -0.546875q0.40625 -0.203125 1.15625 -0.359375q1.03125 -0.1875 1.421875 -0.359375l0 -0.140625q0 -0.421875 -0.21875 -0.59375q-0.203125 -0.1875 -0.78125 -0.1875q-0.375 0 -0.59375 0.15625q-0.21875 0.15625 -0.359375 0.53125zm1.953125 1.1875q-0.28125 0.09375 -0.890625 0.234375q-0.609375 0.125 -0.796875 0.25q-0.28125 0.203125 -0.28125 0.515625q0 0.296875 0.21875 0.53125q0.234375 0.21875 0.59375 0.21875q0.390625 0 0.75 -0.265625q0.265625 -0.1875 0.34375 -0.484375q0.0625 -0.1875 0.0625 -0.703125l0 -0.296875zm2.8796234 -3.625l0 -1.34375l1.46875 0l0 1.34375l-1.46875 0zm0 6.28125l0 -5.53125l1.46875 0l0 5.53125l-1.46875 0zm7.9918976 0l-1.46875 0l0 -2.8125q0 -0.90625 -0.09375 -1.15625q-0.09375 -0.265625 -0.3125 -0.40625q-0.203125 -0.15625 -0.5 -0.15625q-0.375 0 -0.6875 0.21875q-0.296875 0.203125 -0.40625 0.546875q-0.109375 0.34375 -0.109375 1.265625l0 2.5l-1.46875 0l0 -5.53125l1.359375 0l0 0.8125q0.71875 -0.9375 1.828125 -0.9375q0.484375 0 0.875 0.1875q0.40625 0.171875 0.609375 0.4375q0.203125 0.265625 0.28125 0.609375q0.09375 0.34375 0.09375 0.984375l0 3.4375zm4.009262 -5.53125l0 1.171875l-1.0 0l0 2.21875q0 0.6875 0.03125 0.796875q0.03125 0.109375 0.125 0.1875q0.109375 0.0625 0.25 0.0625q0.203125 0 0.59375 -0.140625l0.125 1.140625q-0.515625 0.21875 -1.15625 0.21875q-0.390625 0 -0.71875 -0.125q-0.3125 -0.140625 -0.46875 -0.34375q-0.140625 -0.21875 -0.203125 -0.578125q-0.046875 -0.25 -0.046875 -1.03125l0 -2.40625l-0.671875 0l0 -1.171875l0.671875 0l0 -1.09375l1.46875 -0.859375l0 1.953125l1.0 0zm0.5017395 3.953125l1.46875 -0.21875q0.09375 0.421875 0.375 0.640625q0.296875 0.21875 0.796875 0.21875q0.578125 0 0.859375 -0.203125q0.1875 -0.140625 0.1875 -0.390625q0 -0.171875 -0.09375 -0.28125q-0.109375 -0.09375 -0.5 -0.1875q-1.765625 -0.390625 -2.234375 -0.703125q-0.65625 -0.453125 -0.65625 -1.25q0 -0.71875 0.5625 -1.203125q0.578125 -0.5 1.765625 -0.5q1.125 0 1.671875 0.375q0.5625 0.375 0.765625 1.09375l-1.375 0.25q-0.09375 -0.3125 -0.34375 -0.484375q-0.234375 -0.171875 -0.703125 -0.171875q-0.5625 0 -0.8125 0.15625q-0.171875 0.109375 -0.171875 0.296875q0 0.15625 0.140625 0.265625q0.203125 0.140625 1.359375 0.40625q1.171875 0.265625 1.640625 0.65625q0.453125 0.390625 0.453125 1.078125q0 0.765625 -0.640625 1.3125q-0.625 0.546875 -1.875 0.546875q-1.125 0 -1.78125 -0.453125q-0.65625 -0.46875 -0.859375 -1.25z" fill-rule="nonzero"/><path fill="#969696" d="m213.92528 137.98592l1.34375 0l0 0.765625q0.71875 -0.890625 1.71875 -0.890625q0.53125 0 0.921875 0.21875q0.390625 0.21875 0.640625 0.671875q0.375 -0.453125 0.796875 -0.671875q0.421875 -0.21875 0.890625 -0.21875q0.609375 0 1.03125 0.25q0.421875 0.25 0.625 0.734375q0.15625 0.34375 0.15625 1.140625l0 3.53125l-1.453125 0l0 -3.15625q0 -0.828125 -0.15625 -1.0625q-0.203125 -0.3125 -0.625 -0.3125q-0.3125 0 -0.578125 0.1875q-0.265625 0.1875 -0.390625 0.546875q-0.125 0.359375 -0.125 1.140625l0 2.65625l-1.453125 0l0 -3.03125q0 -0.796875 -0.078125 -1.03125q-0.078125 -0.234375 -0.25 -0.34375q-0.15625 -0.125 -0.4375 -0.125q-0.34375 0 -0.609375 0.1875q-0.265625 0.171875 -0.390625 0.515625q-0.109375 0.34375 -0.109375 1.140625l0 2.6875l-1.46875 0l0 -5.53125zm12.787613 3.765625l1.453125 0.25q-0.28125 0.796875 -0.890625 1.21875q-0.609375 0.421875 -1.515625 0.421875q-1.4375 0 -2.125 -0.9375q-0.546875 -0.765625 -0.546875 -1.90625q0 -1.375 0.71875 -2.15625q0.71875 -0.78125 1.8125 -0.78125q1.234375 0 1.9375 0.828125q0.71875 0.8125 0.6875 2.484375l-3.65625 0q0.015625 0.65625 0.34375 1.015625q0.34375 0.359375 0.84375 0.359375q0.34375 0 0.578125 -0.1875q0.234375 -0.1875 0.359375 -0.609375zm0.078125 -1.46875q-0.015625 -0.640625 -0.328125 -0.96875q-0.3125 -0.328125 -0.765625 -0.328125q-0.46875 0 -0.78125 0.34375q-0.3125 0.359375 -0.3125 0.953125l2.1875 0zm5.1764984 -2.296875l0 1.171875l-1.0 0l0 2.21875q0 0.6875 0.03125 0.796875q0.03125 0.109375 0.125 0.1875q0.109375 0.0625 0.25 0.0625q0.203125 0 0.59375 -0.140625l0.125 1.140625q-0.515625 0.21875 -1.15625 0.21875q-0.390625 0 -0.71875 -0.125q-0.3125 -0.140625 -0.46875 -0.34375q-0.140625 -0.21875 -0.203125 -0.578125q-0.046875 -0.25 -0.046875 -1.03125l0 -2.40625l-0.671875 0l0 -1.171875l0.671875 0l0 -1.09375l1.46875 -0.859375l0 1.953125l1.0 0z" fill-rule="nonzero"/><path fill="#000000" fill-opacity="0.0" d="m472.9147 98.67716l77.82675 0l0 58.173225l-77.82675 0z" fill-rule="evenodd"/><path fill="#969696" d="m487.57095 115.12029l1.5 0.46875q-0.34375 1.25 -1.15625 1.859375q-0.796875 0.59375 -2.015625 0.59375q-1.515625 0 -2.5 -1.03125q-0.984375 -1.046875 -0.984375 -2.84375q0 -1.90625 0.984375 -2.953125q0.984375 -1.0625 2.59375 -1.0625q1.390625 0 2.265625 0.828125q0.53125 0.5 0.78125 1.40625l-1.515625 0.375q-0.140625 -0.59375 -0.578125 -0.9375q-0.421875 -0.34375 -1.03125 -0.34375q-0.859375 0 -1.390625 0.609375q-0.515625 0.609375 -0.515625 1.96875q0 1.4375 0.515625 2.0625q0.515625 0.609375 1.359375 0.609375q0.609375 0 1.046875 -0.390625q0.453125 -0.390625 0.640625 -1.21875zm2.8049622 2.796875l0 -7.625l1.46875 0l0 7.625l-1.46875 0zm6.601288 0l0 -0.828125q-0.3125 0.4375 -0.8125 0.703125q-0.484375 0.25 -1.015625 0.25q-0.5625 0 -1.015625 -0.234375q-0.4375 -0.25 -0.640625 -0.6875q-0.1875 -0.453125 -0.1875 -1.234375l0 -3.5l1.46875 0l0 2.546875q0 1.15625 0.078125 1.421875q0.078125 0.265625 0.28125 0.421875q0.21875 0.15625 0.546875 0.15625q0.375 0 0.671875 -0.203125q0.296875 -0.21875 0.40625 -0.515625q0.109375 -0.3125 0.109375 -1.484375l0 -2.34375l1.46875 0l0 5.53125l-1.359375 0zm2.3529968 -1.578125l1.46875 -0.21875q0.09375 0.421875 0.375 0.640625q0.296875 0.21875 0.796875 0.21875q0.578125 0 0.859375 -0.203125q0.1875 -0.140625 0.1875 -0.390625q0 -0.171875 -0.09375 -0.28125q-0.109375 -0.09375 -0.5 -0.1875q-1.765625 -0.390625 -2.234375 -0.703125q-0.65625 -0.453125 -0.65625 -1.25q0 -0.71875 0.5625 -1.203125q0.578125 -0.5 1.765625 -0.5q1.125 0 1.671875 0.375q0.5625 0.375 0.765625 1.09375l-1.375 0.25q-0.09375 -0.3125 -0.34375 -0.484375q-0.234375 -0.171875 -0.703125 -0.171875q-0.5625 0 -0.8125 0.15625q-0.171875 0.109375 -0.171875 0.296875q0 0.15625 0.140625 0.265625q0.203125 0.140625 1.359375 0.40625q1.171875 0.265625 1.640625 0.65625q0.453125 0.390625 0.453125 1.078125q0 0.765625 -0.640625 1.3125q-0.625 0.546875 -1.875 0.546875q-1.125 0 -1.78125 -0.453125q-0.65625 -0.46875 -0.859375 -1.25zm8.973389 -3.953125l0 1.171875l-1.0 0l0 2.21875q0 0.6875 0.03125 0.796875q0.03125 0.109375 0.125 0.1875q0.109375 0.0625 0.25 0.0625q0.203125 0 0.59375 -0.140625l0.125 1.140625q-0.515625 0.21875 -1.15625 0.21875q-0.390625 0 -0.71875 -0.125q-0.3125 -0.140625 -0.46875 -0.34375q-0.140625 -0.21875 -0.203125 -0.578125q-0.046875 -0.25 -0.046875 -1.03125l0 -2.40625l-0.671875 0l0 -1.171875l0.671875 0l0 -1.09375l1.46875 -0.859375l0 1.953125l1.0 0zm4.220459 3.765625l1.453125 0.25q-0.28125 0.796875 -0.890625 1.21875q-0.609375 0.421875 -1.5155945 0.421875q-1.4375 0 -2.125 -0.9375q-0.546875 -0.765625 -0.546875 -1.90625q0 -1.375 0.71875 -2.15625q0.71875 -0.78125 1.8125 -0.78125q1.2343445 0 1.9374695 0.828125q0.71875 0.8125 0.6875 2.484375l-3.6562195 0q0.015625 0.65625 0.34375 1.015625q0.34375 0.359375 0.84375 0.359375q0.34375 0 0.5780945 -0.1875q0.234375 -0.1875 0.359375 -0.609375zm0.078125 -1.46875q-0.015625 -0.640625 -0.328125 -0.96875q-0.31246948 -0.328125 -0.7655945 -0.328125q-0.46875 0 -0.78125 0.34375q-0.3125 0.359375 -0.3125 0.953125l2.1874695 0zm4.0515137 3.234375l-1.46875 0l0 -5.53125l1.359375 0l0 0.796875q0.34375 -0.5625 0.625 -0.734375q0.28125 -0.1875 0.625 -0.1875q0.5 0 0.96875 0.28125l-0.453125 1.28125q-0.375 -0.25 -0.6875 -0.25q-0.3125 0 -0.53125 0.171875q-0.203125 0.171875 -0.328125 0.625q-0.109375 0.4375 -0.109375 1.84375l0 1.703125z" fill-rule="nonzero"/><path fill="#969696" d="m484.08658 130.71716l-1.46875 0l0 -5.53125l1.359375 0l0 0.796875q0.34375 -0.5625 0.625 -0.734375q0.28125 -0.1875 0.625 -0.1875q0.5 0 0.96875 0.28125l-0.453125 1.28125q-0.375 -0.25 -0.6875 -0.25q-0.3125 0 -0.53125 0.171875q-0.203125 0.171875 -0.328125 0.625q-0.109375 0.4375 -0.109375 1.84375l0 1.703125zm5.9438477 -1.765625l1.453125 0.25q-0.28125 0.796875 -0.890625 1.21875q-0.609375 0.421875 -1.515625 0.421875q-1.4375 0 -2.125 -0.9375q-0.546875 -0.765625 -0.546875 -1.90625q0 -1.375 0.71875 -2.15625q0.71875 -0.78125 1.8125 -0.78125q1.234375 0 1.9375 0.828125q0.71875 0.8125 0.6875 2.484375l-3.65625 0q0.015625 0.65625 0.34375 1.015625q0.34375 0.359375 0.84375 0.359375q0.34375 0 0.578125 -0.1875q0.234375 -0.1875 0.359375 -0.609375zm0.078125 -1.46875q-0.015625 -0.640625 -0.328125 -0.96875q-0.3125 -0.328125 -0.765625 -0.328125q-0.46875 0 -0.78125 0.34375q-0.3125 0.359375 -0.3125 0.953125l2.1875 0zm2.1296387 1.65625l1.46875 -0.21875q0.09375 0.421875 0.375 0.640625q0.296875 0.21875 0.796875 0.21875q0.578125 0 0.859375 -0.203125q0.1875 -0.140625 0.1875 -0.390625q0 -0.171875 -0.09375 -0.28125q-0.109375 -0.09375 -0.5 -0.1875q-1.765625 -0.390625 -2.234375 -0.703125q-0.65625 -0.453125 -0.65625 -1.25q0 -0.71875 0.5625 -1.203125q0.578125 -0.5 1.765625 -0.5q1.125 0 1.671875 0.375q0.5625 0.375 0.765625 1.09375l-1.375 0.25q-0.09375 -0.3125 -0.34375 -0.484375q-0.234375 -0.171875 -0.703125 -0.171875q-0.5625 0 -0.8125 0.15625q-0.171875 0.109375 -0.171875 0.296875q0 0.15625 0.140625 0.265625q0.203125 0.140625 1.359375 0.40625q1.171875 0.265625 1.640625 0.65625q0.453125 0.390625 0.453125 1.078125q0 0.765625 -0.640625 1.3125q-0.625 0.546875 -1.875 0.546875q-1.125 0 -1.78125 -0.453125q-0.65625 -0.46875 -0.859375 -1.25zm6.098358 -1.265625q0 -0.71875 0.359375 -1.40625q0.359375 -0.6875 1.015625 -1.046875q0.671875 -0.359375 1.46875 -0.359375q1.265625 0 2.0625 0.828125q0.796875 0.8125 0.796875 2.046875q0 1.25 -0.8125 2.078125q-0.796875 0.828125 -2.03125 0.828125q-0.75 0 -1.453125 -0.34375q-0.6875 -0.34375 -1.046875 -1.0q-0.359375 -0.671875 -0.359375 -1.625zm1.5 0.078125q0 0.828125 0.390625 1.265625q0.390625 0.4375 0.96875 0.4375q0.5625 0 0.953125 -0.4375q0.390625 -0.4375 0.390625 -1.265625q0 -0.8125 -0.390625 -1.25q-0.390625 -0.4375 -0.953125 -0.4375q-0.578125 0 -0.96875 0.4375q-0.390625 0.4375 -0.390625 1.25zm8.993652 2.765625l0 -0.828125q-0.3125 0.4375 -0.8125 0.703125q-0.484375 0.25 -1.015625 0.25q-0.5625 0 -1.015625 -0.234375q-0.4375 -0.25 -0.640625 -0.6875q-0.1875 -0.453125 -0.1875 -1.234375l0 -3.5l1.46875 0l0 2.546875q0 1.15625 0.078125 1.421875q0.078125 0.265625 0.28125 0.421875q0.21875 0.15625 0.546875 0.15625q0.375 0 0.671875 -0.203125q0.296875 -0.21875 0.40625 -0.515625q0.109375 -0.3125 0.109375 -1.484375l0 -2.34375l1.46875 0l0 5.53125l-1.359375 0zm4.2749023 0l-1.4687805 0l0 -5.53125l1.3594055 0l0 0.796875q0.34375 -0.5625 0.625 -0.734375q0.28125 -0.1875 0.625 -0.1875q0.5 0 0.96875 0.28125l-0.453125 1.28125q-0.375 -0.25 -0.6875 -0.25q-0.3125 0 -0.53125 0.171875q-0.203125 0.171875 -0.328125 0.625q-0.109375 0.4375 -0.109375 1.84375l0 1.703125zm7.5532227 -3.890625l-1.4375 0.265625q-0.078125 -0.4375 -0.34375 -0.65625q-0.25 -0.21875 -0.65625 -0.21875q-0.546875 0 -0.875 0.375q-0.3125 0.375 -0.3125 1.265625q0 0.984375 0.328125 1.390625q0.328125 0.40625 0.875 0.40625q0.421875 0 0.6875 -0.234375q0.265625 -0.25 0.375 -0.828125l1.4375 0.25q-0.21875 0.984375 -0.859375 1.5q-0.640625 0.5 -1.703125 0.5q-1.203125 0 -1.9375 -0.765625q-0.71875 -0.765625 -0.71875 -2.109375q0 -1.375 0.71875 -2.140625q0.734375 -0.765625 1.96875 -0.765625q1.0 0 1.59375 0.4375q0.609375 0.4375 0.859375 1.328125zm4.3171387 2.125l1.453125 0.25q-0.28125 0.796875 -0.890625 1.21875q-0.609375 0.421875 -1.515625 0.421875q-1.4375 0 -2.125 -0.9375q-0.546875 -0.765625 -0.546875 -1.90625q0 -1.375 0.71875 -2.15625q0.71875 -0.78125 1.8125 -0.78125q1.234375 0 1.9375 0.828125q0.71875 0.8125 0.6875 2.484375l-3.65625 0q0.015625 0.65625 0.34375 1.015625q0.34375 0.359375 0.84375 0.359375q0.34375 0 0.578125 -0.1875q0.234375 -0.1875 0.359375 -0.609375zm0.078125 -1.46875q-0.015625 -0.640625 -0.328125 -0.96875q-0.3125 -0.328125 -0.765625 -0.328125q-0.46875 0 -0.78125 0.34375q-0.3125 0.359375 -0.3125 0.953125l2.1875 0zm2.1295776 1.65625l1.46875 -0.21875q0.09375 0.421875 0.375 0.640625q0.296875 0.21875 0.796875 0.21875q0.578125 0 0.859375 -0.203125q0.1875 -0.140625 0.1875 -0.390625q0 -0.171875 -0.09375 -0.28125q-0.109375 -0.09375 -0.5 -0.1875q-1.765625 -0.390625 -2.234375 -0.703125q-0.65625 -0.453125 -0.65625 -1.25q0 -0.71875 0.5625 -1.203125q0.578125 -0.5 1.765625 -0.5q1.125 0 1.671875 0.375q0.5625 0.375 0.765625 1.09375l-1.375 0.25q-0.09375 -0.3125 -0.34375 -0.484375q-0.234375 -0.171875 -0.703125 -0.171875q-0.5625 0 -0.8125 0.15625q-0.171875 0.109375 -0.171875 0.296875q0 0.15625 0.140625 0.265625q0.203125 0.140625 1.359375 0.40625q1.171875 0.265625 1.640625 0.65625q0.453125 0.390625 0.453125 1.078125q0 0.765625 -0.640625 1.3125q-0.625 0.546875 -1.875 0.546875q-1.125 0 -1.78125 -0.453125q-0.65625 -0.46875 -0.859375 -1.25z" fill-rule="nonzero"/><path fill="#969696" d="m483.77408 139.67342l-1.328125 -0.234375q0.21875 -0.796875 0.765625 -1.1875q0.546875 -0.390625 1.625 -0.390625q0.984375 0 1.453125 0.234375q0.484375 0.234375 0.671875 0.59375q0.203125 0.359375 0.203125 1.3125l-0.015625 1.703125q0 0.71875 0.0625 1.078125q0.078125 0.34375 0.265625 0.734375l-1.4375 0q-0.0625 -0.140625 -0.140625 -0.4375q-0.046875 -0.125 -0.0625 -0.171875q-0.375 0.375 -0.796875 0.5625q-0.421875 0.171875 -0.90625 0.171875q-0.859375 0 -1.359375 -0.453125q-0.484375 -0.46875 -0.484375 -1.1875q0 -0.46875 0.21875 -0.828125q0.234375 -0.359375 0.640625 -0.546875q0.40625 -0.203125 1.15625 -0.359375q1.03125 -0.1875 1.421875 -0.359375l0 -0.140625q0 -0.421875 -0.21875 -0.59375q-0.203125 -0.1875 -0.78125 -0.1875q-0.375 0 -0.59375 0.15625q-0.21875 0.15625 -0.359375 0.53125zm1.953125 1.1875q-0.28125 0.09375 -0.890625 0.234375q-0.609375 0.125 -0.796875 0.25q-0.28125 0.203125 -0.28125 0.515625q0 0.296875 0.21875 0.53125q0.234375 0.21875 0.59375 0.21875q0.390625 0 0.75 -0.265625q0.265625 -0.1875 0.34375 -0.484375q0.0625 -0.1875 0.0625 -0.703125l0 -0.296875zm4.395233 2.65625l-2.21875 -5.53125l1.53125 0l1.046875 2.828125l0.296875 0.9375q0.109375 -0.359375 0.140625 -0.46875q0.078125 -0.234375 0.15625 -0.46875l1.0625 -2.828125l1.5 0l-2.203125 5.53125l-1.3125 0zm5.5046387 -3.84375l-1.328125 -0.234375q0.21875 -0.796875 0.765625 -1.1875q0.546875 -0.390625 1.625 -0.390625q0.984375 0 1.453125 0.234375q0.484375 0.234375 0.671875 0.59375q0.203125 0.359375 0.203125 1.3125l-0.015625 1.703125q0 0.71875 0.0625 1.078125q0.078125 0.34375 0.265625 0.734375l-1.4375 0q-0.0625 -0.140625 -0.140625 -0.4375q-0.046875 -0.125 -0.0625 -0.171875q-0.375 0.375 -0.796875 0.5625q-0.421875 0.171875 -0.90625 0.171875q-0.859375 0 -1.359375 -0.453125q-0.484375 -0.46875 -0.484375 -1.1875q0 -0.46875 0.21875 -0.828125q0.234375 -0.359375 0.640625 -0.546875q0.40625 -0.203125 1.15625 -0.359375q1.03125 -0.1875 1.421875 -0.359375l0 -0.140625q0 -0.421875 -0.21875 -0.59375q-0.203125 -0.1875 -0.78125 -0.1875q-0.375 0 -0.59375 0.15625q-0.21875 0.15625 -0.359375 0.53125zm1.953125 1.1875q-0.28125 0.09375 -0.890625 0.234375q-0.609375 0.125 -0.796875 0.25q-0.28125 0.203125 -0.28125 0.515625q0 0.296875 0.21875 0.53125q0.234375 0.21875 0.59375 0.21875q0.390625 0 0.75 -0.265625q0.265625 -0.1875 0.34375 -0.484375q0.0625 -0.1875 0.0625 -0.703125l0 -0.296875zm2.8796082 -3.625l0 -1.34375l1.46875 0l0 1.34375l-1.46875 0zm0 6.28125l0 -5.53125l1.46875 0l0 5.53125l-1.46875 0zm2.9606628 0l0 -7.625l1.46875 0l0 7.625l-1.46875 0zm4.0543823 -3.84375l-1.328125 -0.234375q0.21875 -0.796875 0.765625 -1.1875q0.546875 -0.390625 1.625 -0.390625q0.984375 0 1.453125 0.234375q0.484375 0.234375 0.671875 0.59375q0.203125 0.359375 0.203125 1.3125l-0.015625 1.703125q0 0.71875 0.0625 1.078125q0.078125 0.34375 0.265625 0.734375l-1.4375 0q-0.0625 -0.140625 -0.140625 -0.4375q-0.046875 -0.125 -0.0625 -0.171875q-0.375 0.375 -0.796875 0.5625q-0.421875 0.171875 -0.90625 0.171875q-0.859375 0 -1.359375 -0.453125q-0.484375 -0.46875 -0.484375 -1.1875q0 -0.46875 0.21875 -0.828125q0.234375 -0.359375 0.640625 -0.546875q0.40625 -0.203125 1.15625 -0.359375q1.03125 -0.1875 1.421875 -0.359375l0 -0.140625q0 -0.421875 -0.21875 -0.59375q-0.203125 -0.1875 -0.78125 -0.1875q-0.375 0 -0.59375 0.15625q-0.21875 0.15625 -0.359375 0.53125zm1.953125 1.1875q-0.28125 0.09375 -0.890625 0.234375q-0.609375 0.125 -0.796875 0.25q-0.28125 0.203125 -0.28125 0.515625q0 0.296875 0.21875 0.53125q0.234375 0.21875 0.59375 0.21875q0.390625 0 0.75 -0.265625q0.265625 -0.1875 0.34375 -0.484375q0.0625 -0.1875 0.0625 -0.703125l0 -0.296875zm2.8171387 2.65625l0 -7.625l1.46875 0l0 2.75q0.671875 -0.78125 1.59375 -0.78125q1.015625 0 1.671875 0.734375q0.65625 0.734375 0.65625 2.109375q0 1.40625 -0.671875 2.171875q-0.671875 0.765625 -1.640625 0.765625q-0.46875 0 -0.9375 -0.234375q-0.453125 -0.234375 -0.78125 -0.703125l0 0.8125l-1.359375 0zm1.453125 -2.875q0 0.84375 0.265625 1.265625q0.375 0.578125 1.015625 0.578125q0.484375 0 0.8125 -0.40625q0.34375 -0.421875 0.34375 -1.3125q0 -0.9375 -0.34375 -1.359375q-0.34375 -0.421875 -0.875 -0.421875q-0.53125 0 -0.875 0.40625q-0.34375 0.40625 -0.34375 1.25zm5.1186523 2.875l0 -7.625l1.46875 0l0 7.625l-1.46875 0zm6.1637573 -1.765625l1.453125 0.25q-0.28125 0.796875 -0.890625 1.21875q-0.609375 0.421875 -1.515625 0.421875q-1.4375 0 -2.125 -0.9375q-0.546875 -0.765625 -0.546875 -1.90625q0 -1.375 0.71875 -2.15625q0.71875 -0.78125 1.8125 -0.78125q1.234375 0 1.9375 0.828125q0.71875 0.8125 0.6875 2.484375l-3.65625 0q0.015625 0.65625 0.34375 1.015625q0.34375 0.359375 0.84375 0.359375q0.34375 0 0.578125 -0.1875q0.234375 -0.1875 0.359375 -0.609375zm0.078125 -1.46875q-0.015625 -0.640625 -0.328125 -0.96875q-0.3125 -0.328125 -0.765625 -0.328125q-0.46875 0 -0.78125 0.34375q-0.3125 0.359375 -0.3125 0.953125l2.1875 0z" fill-rule="nonzero"/><path fill="#000000" fill-opacity="0.0" d="m741.56036 98.67716l77.82678 0l0 45.25985l-77.82678 0z" fill-rule="evenodd"/><path fill="#969696" d="m751.3416 117.91717l0 -7.625l2.46875 0q1.40625 0 1.828125 0.109375q0.65625 0.171875 1.09375 0.75q0.453125 0.578125 0.453125 1.484375q0 0.703125 -0.265625 1.1875q-0.25 0.46875 -0.640625 0.75q-0.390625 0.265625 -0.796875 0.359375q-0.5625 0.109375 -1.609375 0.109375l-1.0 0l0 2.875l-1.53125 0zm1.53125 -6.34375l0 2.171875l0.84375 0q0.90625 0 1.21875 -0.109375q0.3125 -0.125 0.484375 -0.375q0.171875 -0.265625 0.171875 -0.609375q0 -0.40625 -0.25 -0.671875q-0.234375 -0.28125 -0.609375 -0.34375q-0.28125 -0.0625 -1.109375 -0.0625l-0.75 0zm6.967041 6.34375l-1.46875 0l0 -5.53125l1.359375 0l0 0.796875q0.34375 -0.5625 0.625 -0.734375q0.28125 -0.1875 0.625 -0.1875q0.5 0 0.96875 0.28125l-0.453125 1.28125q-0.375 -0.25 -0.6875 -0.25q-0.3125 0 -0.53125 0.171875q-0.203125 0.171875 -0.328125 0.625q-0.109375 0.4375 -0.109375 1.84375l0 1.703125zm2.3969727 -2.84375q0 -0.71875 0.359375 -1.40625q0.359375 -0.6875 1.015625 -1.046875q0.671875 -0.359375 1.46875 -0.359375q1.265625 0 2.0625 0.828125q0.796875 0.8125 0.796875 2.046875q0 1.25 -0.8125 2.078125q-0.796875 0.828125 -2.03125 0.828125q-0.75 0 -1.453125 -0.34375q-0.6875 -0.34375 -1.046875 -1.0q-0.359375 -0.671875 -0.359375 -1.625zm1.5 0.078125q0 0.828125 0.390625 1.265625q0.390625 0.4375 0.96875 0.4375q0.5625 0 0.953125 -0.4375q0.390625 -0.4375 0.390625 -1.265625q0 -0.8125 -0.390625 -1.25q-0.390625 -0.4375 -0.953125 -0.4375q-0.578125 0 -0.96875 0.4375q-0.390625 0.4375 -0.390625 1.25zm10.165527 -1.125l-1.4375 0.265625q-0.078125 -0.4375 -0.34375 -0.65625q-0.25 -0.21875 -0.65625 -0.21875q-0.546875 0 -0.875 0.375q-0.3125 0.375 -0.3125 1.265625q0 0.984375 0.328125 1.390625q0.328125 0.40625 0.875 0.40625q0.421875 0 0.6875 -0.234375q0.265625 -0.25 0.375 -0.828125l1.4375 0.25q-0.21875 0.984375 -0.859375 1.5q-0.640625 0.5 -1.703125 0.5q-1.203125 0 -1.9375 -0.765625q-0.71875 -0.765625 -0.71875 -2.109375q0 -1.375 0.71875 -2.140625q0.734375 -0.765625 1.96875 -0.765625q1.0 0 1.59375 0.4375q0.609375 0.4375 0.859375 1.328125zm4.3170776 2.125l1.453125 0.25q-0.28125 0.796875 -0.890625 1.21875q-0.609375 0.421875 -1.515625 0.421875q-1.4375 0 -2.125 -0.9375q-0.546875 -0.765625 -0.546875 -1.90625q0 -1.375 0.71875 -2.15625q0.71875 -0.78125 1.8125 -0.78125q1.234375 0 1.9375 0.828125q0.71875 0.8125 0.6875 2.484375l-3.65625 0q0.015625 0.65625 0.34375 1.015625q0.34375 0.359375 0.84375 0.359375q0.34375 0 0.578125 -0.1875q0.234375 -0.1875 0.359375 -0.609375zm0.078125 -1.46875q-0.015625 -0.640625 -0.328125 -0.96875q-0.3125 -0.328125 -0.765625 -0.328125q-0.46875 0 -0.78125 0.34375q-0.3125 0.359375 -0.3125 0.953125l2.1875 0zm2.1296387 1.65625l1.46875 -0.21875q0.09375 0.421875 0.375 0.640625q0.296875 0.21875 0.796875 0.21875q0.578125 0 0.859375 -0.203125q0.1875 -0.140625 0.1875 -0.390625q0 -0.171875 -0.09375 -0.28125q-0.109375 -0.09375 -0.5 -0.1875q-1.765625 -0.390625 -2.234375 -0.703125q-0.65625 -0.453125 -0.65625 -1.25q0 -0.71875 0.5625 -1.203125q0.578125 -0.5 1.765625 -0.5q1.125 0 1.671875 0.375q0.5625 0.375 0.765625 1.09375l-1.375 0.25q-0.09375 -0.3125 -0.34375 -0.484375q-0.234375 -0.171875 -0.703125 -0.171875q-0.5625 0 -0.8125 0.15625q-0.171875 0.109375 -0.171875 0.296875q0 0.15625 0.140625 0.265625q0.203125 0.140625 1.359375 0.40625q1.171875 0.265625 1.640625 0.65625q0.453125 0.390625 0.453125 1.078125q0 0.765625 -0.640625 1.3125q-0.625 0.546875 -1.875 0.546875q-1.125 0 -1.78125 -0.453125q-0.65625 -0.46875 -0.859375 -1.25zm5.9265137 0l1.46875 -0.21875q0.09375 0.421875 0.375 0.640625q0.296875 0.21875 0.796875 0.21875q0.578125 0 0.859375 -0.203125q0.1875 -0.140625 0.1875 -0.390625q0 -0.171875 -0.09375 -0.28125q-0.109375 -0.09375 -0.5 -0.1875q-1.765625 -0.390625 -2.234375 -0.703125q-0.65625 -0.453125 -0.65625 -1.25q0 -0.71875 0.5625 -1.203125q0.578125 -0.5 1.765625 -0.5q1.125 0 1.671875 0.375q0.5625 0.375 0.765625 1.09375l-1.375 0.25q-0.09375 -0.3125 -0.34375 -0.484375q-0.234375 -0.171875 -0.703125 -0.171875q-0.5625 0 -0.8125 0.15625q-0.171875 0.109375 -0.171875 0.296875q0 0.15625 0.140625 0.265625q0.203125 0.140625 1.359375 0.40625q1.171875 0.265625 1.640625 0.65625q0.453125 0.390625 0.453125 1.078125q0 0.765625 -0.640625 1.3125q-0.625 0.546875 -1.875 0.546875q-1.125 0 -1.78125 -0.453125q-0.65625 -0.46875 -0.859375 -1.25zm6.4421387 -4.703125l0 -1.34375l1.46875 0l0 1.34375l-1.46875 0zm0 6.28125l0 -5.53125l1.46875 0l0 5.53125l-1.46875 0zm7.9918823 0l-1.46875 0l0 -2.8125q0 -0.90625 -0.09375 -1.15625q-0.09375 -0.265625 -0.3125 -0.40625q-0.203125 -0.15625 -0.5 -0.15625q-0.375 0 -0.6875 0.21875q-0.296875 0.203125 -0.40625 0.546875q-0.109375 0.34375 -0.109375 1.265625l0 2.5l-1.46875 0l0 -5.53125l1.359375 0l0 0.8125q0.71875 -0.9375 1.828125 -0.9375q0.484375 0 0.875 0.1875q0.40625 0.171875 0.609375 0.4375q0.203125 0.265625 0.28125 0.609375q0.09375 0.34375 0.09375 0.984375l0 3.4375zm1.3374023 0.359375l1.671875 0.203125q0.046875 0.296875 0.203125 0.40625q0.203125 0.15625 0.640625 0.15625q0.578125 0 0.859375 -0.171875q0.203125 -0.109375 0.296875 -0.375q0.0625 -0.171875 0.0625 -0.671875l0 -0.796875q-0.65625 0.890625 -1.65625 0.890625q-1.109375 0 -1.75 -0.9375q-0.515625 -0.75 -0.515625 -1.859375q0 -1.390625 0.671875 -2.125q0.671875 -0.734375 1.65625 -0.734375q1.03125 0 1.6875 0.90625l0 -0.78125l1.375 0l0 4.96875q0 0.96875 -0.171875 1.453125q-0.15625 0.484375 -0.453125 0.765625q-0.28125 0.28125 -0.765625 0.4375q-0.484375 0.15625 -1.234375 0.15625q-1.40625 0 -2.0 -0.484375q-0.578125 -0.484375 -0.578125 -1.21875q0 -0.078125 0 -0.1875zm1.3125 -3.234375q0 0.875 0.34375 1.28125q0.34375 0.40625 0.828125 0.40625q0.546875 0 0.90625 -0.40625q0.375 -0.421875 0.375 -1.25q0 -0.859375 -0.359375 -1.265625q-0.34375 -0.421875 -0.890625 -0.421875q-0.515625 0 -0.859375 0.40625q-0.34375 0.40625 -0.34375 1.25z" fill-rule="nonzero"/><path fill="#969696" d="m750.68536 125.18591l0.8125 0l0 -0.40625q0 -0.703125 0.140625 -1.046875q0.15625 -0.34375 0.546875 -0.5625q0.40625 -0.21875 1.015625 -0.21875q0.625 0 1.21875 0.1875l-0.203125 1.03125q-0.34375 -0.09375 -0.671875 -0.09375q-0.3125 0 -0.453125 0.15625q-0.125 0.140625 -0.125 0.5625l0 0.390625l1.078125 0l0 1.15625l-1.078125 0l0 4.375l-1.46875 0l0 -4.375l-0.8125 0l0 -1.15625zm4.18927 -0.75l0 -1.34375l1.46875 0l0 1.34375l-1.46875 0zm0 6.28125l0 -5.53125l1.46875 0l0 5.53125l-1.46875 0zm7.9918823 0l-1.46875 0l0 -2.8125q0 -0.90625 -0.09375 -1.15625q-0.09375 -0.265625 -0.3125 -0.40625q-0.203125 -0.15625 -0.5 -0.15625q-0.375 0 -0.6875 0.21875q-0.296875 0.203125 -0.40625 0.546875q-0.109375 0.34375 -0.109375 1.265625l0 2.5l-1.46875 0l0 -5.53125l1.359375 0l0 0.8125q0.71875 -0.9375 1.828125 -0.9375q0.484375 0 0.875 0.1875q0.40625 0.171875 0.609375 0.4375q0.203125 0.265625 0.28125 0.609375q0.09375 0.34375 0.09375 0.984375l0 3.4375zm1.4780273 -6.28125l0 -1.34375l1.46875 0l0 1.34375l-1.46875 0zm0 6.28125l0 -5.53125l1.46875 0l0 5.53125l-1.46875 0zm2.4450073 -1.578125l1.46875 -0.21875q0.09375 0.421875 0.375 0.640625q0.296875 0.21875 0.796875 0.21875q0.578125 0 0.859375 -0.203125q0.1875 -0.140625 0.1875 -0.390625q0 -0.171875 -0.09375 -0.28125q-0.109375 -0.09375 -0.5 -0.1875q-1.765625 -0.390625 -2.234375 -0.703125q-0.65625 -0.453125 -0.65625 -1.25q0 -0.71875 0.5625 -1.203125q0.578125 -0.5 1.765625 -0.5q1.125 0 1.671875 0.375q0.5625 0.375 0.765625 1.09375l-1.375 0.25q-0.09375 -0.3125 -0.34375 -0.484375q-0.234375 -0.171875 -0.703125 -0.171875q-0.5625 0 -0.8125 0.15625q-0.171875 0.109375 -0.171875 0.296875q0 0.15625 0.140625 0.265625q0.203125 0.140625 1.359375 0.40625q1.171875 0.265625 1.640625 0.65625q0.453125 0.390625 0.453125 1.078125q0 0.765625 -0.640625 1.3125q-0.625 0.546875 -1.875 0.546875q-1.125 0 -1.78125 -0.453125q-0.65625 -0.46875 -0.859375 -1.25zm7.8952637 -6.046875l0 2.796875q0.703125 -0.828125 1.6875 -0.828125q0.515625 0 0.921875 0.1875q0.40625 0.1875 0.609375 0.484375q0.203125 0.296875 0.28125 0.65625q0.078125 0.34375 0.078125 1.09375l0 3.234375l-1.46875 0l0 -2.921875q0 -0.859375 -0.09375 -1.09375q-0.078125 -0.234375 -0.296875 -0.375q-0.203125 -0.140625 -0.515625 -0.140625q-0.359375 0 -0.65625 0.1875q-0.28125 0.171875 -0.421875 0.53125q-0.125 0.34375 -0.125 1.046875l0 2.765625l-1.453125 0l0 -7.625l1.453125 0zm8.259216 5.859375l1.453125 0.25q-0.28125 0.796875 -0.890625 1.21875q-0.609375 0.421875 -1.515625 0.421875q-1.4375 0 -2.125 -0.9375q-0.546875 -0.765625 -0.546875 -1.90625q0 -1.375 0.71875 -2.15625q0.71875 -0.78125 1.8125 -0.78125q1.234375 0 1.9375 0.828125q0.71875 0.8125 0.6875 2.484375l-3.65625 0q0.015625 0.65625 0.34375 1.015625q0.34375 0.359375 0.84375 0.359375q0.34375 0 0.578125 -0.1875q0.234375 -0.1875 0.359375 -0.609375zm0.078125 -1.46875q-0.015625 -0.640625 -0.328125 -0.96875q-0.3125 -0.328125 -0.765625 -0.328125q-0.46875 0 -0.78125 0.34375q-0.3125 0.359375 -0.3125 0.953125l2.1875 0zm7.7077637 3.234375l-1.359375 0l0 -0.8125q-0.328125 0.46875 -0.796875 0.703125q-0.453125 0.234375 -0.921875 0.234375q-0.953125 0 -1.640625 -0.765625q-0.671875 -0.765625 -0.671875 -2.140625q0 -1.40625 0.65625 -2.140625q0.671875 -0.734375 1.671875 -0.734375q0.921875 0 1.609375 0.78125l0 -2.75l1.453125 0l0 7.625zm-3.890625 -2.875q0 0.875 0.234375 1.265625q0.359375 0.578125 0.984375 0.578125q0.515625 0 0.859375 -0.421875q0.359375 -0.4375 0.359375 -1.28125q0 -0.953125 -0.34375 -1.375q-0.34375 -0.421875 -0.875 -0.421875q-0.515625 0 -0.875 0.421875q-0.34375 0.40625 -0.34375 1.234375z" fill-rule="nonzero"/></g></svg>